<svg width="18" height="18" viewBox="0 0 18 18" fill="none" xmlns="http://www.w3.org/2000/svg">
    <path d="M7.3958 13.4997C7.29296 13.4994 7.19129 13.4779 7.0971 13.4366C7.00291 13.3953 6.91823 13.3351 6.8483 13.2597L3.2033 9.38219C3.06704 9.23698 2.99405 9.0436 3.00038 8.84457C3.00671 8.64555 3.09184 8.45719 3.23705 8.32094C3.38225 8.18468 3.57564 8.11169 3.77466 8.11802C3.97368 8.12435 4.16204 8.20948 4.2983 8.35469L7.3883 11.6472L13.6958 4.74719C13.7598 4.66748 13.8394 4.6017 13.9298 4.55389C14.0201 4.50607 14.1193 4.47724 14.2212 4.46915C14.3231 4.46106 14.4256 4.47389 14.5224 4.50685C14.6192 4.53981 14.7082 4.59221 14.784 4.66082C14.8597 4.72944 14.9207 4.81282 14.9631 4.90585C15.0055 4.99887 15.0284 5.09958 15.0304 5.20179C15.0325 5.304 15.0136 5.40555 14.975 5.5002C14.9363 5.59485 14.8788 5.6806 14.8058 5.75219L7.9508 13.2522C7.88153 13.329 7.79713 13.3906 7.70291 13.4332C7.60869 13.4758 7.50669 13.4984 7.4033 13.4997H7.3958Z" fill="#4F47EB"/>
</svg>
