<svg width="20" height="20" viewBox="0 0 20 20" fill="none" xmlns="http://www.w3.org/2000/svg">
    <path d="M18.333 5.41699H13.333" stroke="#535863" stroke-width="1.5" stroke-miterlimit="10" stroke-linecap="round" stroke-linejoin="round"/>
    <path d="M5.00033 5.41699H1.66699" stroke="#535863" stroke-width="1.5" stroke-miterlimit="10" stroke-linecap="round" stroke-linejoin="round"/>
    <path d="M8.33366 8.33333C9.94449 8.33333 11.2503 7.0275 11.2503 5.41667C11.2503 3.80584 9.94449 2.5 8.33366 2.5C6.72283 2.5 5.41699 3.80584 5.41699 5.41667C5.41699 7.0275 6.72283 8.33333 8.33366 8.33333Z" stroke="#535863" stroke-width="1.5" stroke-miterlimit="10" stroke-linecap="round" stroke-linejoin="round"/>
    <path d="M18.3333 14.583H15" stroke="#535863" stroke-width="1.5" stroke-miterlimit="10" stroke-linecap="round" stroke-linejoin="round"/>
    <path d="M6.66699 14.583H1.66699" stroke="#535863" stroke-width="1.5" stroke-miterlimit="10" stroke-linecap="round" stroke-linejoin="round"/>
    <path d="M11.6667 17.5003C13.2775 17.5003 14.5833 16.1945 14.5833 14.5837C14.5833 12.9728 13.2775 11.667 11.6667 11.667C10.0558 11.667 8.75 12.9728 8.75 14.5837C8.75 16.1945 10.0558 17.5003 11.6667 17.5003Z" stroke="#535863" stroke-width="1.5" stroke-miterlimit="10" stroke-linecap="round" stroke-linejoin="round"/>
</svg>
